<?xml version="1.0" encoding="UTF-8" standalone="no"?>
<!-- Created with Inkscape (http://www.inkscape.org/) -->

<svg
   xmlns:dc="http://purl.org/dc/elements/1.1/"
   xmlns:cc="http://creativecommons.org/ns#"
   xmlns:rdf="http://www.w3.org/1999/02/22-rdf-syntax-ns#"
   xmlns:svg="http://www.w3.org/2000/svg"
   xmlns="http://www.w3.org/2000/svg"
   xmlns:xlink="http://www.w3.org/1999/xlink"
   xmlns:sodipodi="http://sodipodi.sourceforge.net/DTD/sodipodi-0.dtd"
   xmlns:inkscape="http://www.inkscape.org/namespaces/inkscape"
   width="500"
   height="500"
   id="svg2"
   version="1.1"
   inkscape:version="0.48.4 r9939"
   sodipodi:docname="calendarLogo.svg">
  <defs
     id="defs4">
    <linearGradient
       inkscape:collect="always"
       id="linearGradient3856">
      <stop
         style="stop-color:#eeeeee;stop-opacity:1;"
         offset="0"
         id="stop3858" />
      <stop
         style="stop-color:#eeeeee;stop-opacity:0;"
         offset="1"
         id="stop3860" />
    </linearGradient>
    <linearGradient
       id="linearGradient3846">
      <stop
         style="stop-color:#cccccf;stop-opacity:1;"
         offset="0"
         id="stop3848" />
      <stop
         style="stop-color:#eeeeee;stop-opacity:1"
         offset="1"
         id="stop3850" />
    </linearGradient>
    <linearGradient
       id="linearGradient3838">
      <stop
         style="stop-color:#cccccf;stop-opacity:1"
         offset="0"
         id="stop3840" />
      <stop
         style="stop-color:#eeeeee;stop-opacity:1;"
         offset="1"
         id="stop3842" />
    </linearGradient>
    <linearGradient
       y2="665.57477"
       x2="127.27922"
       y1="880.53528"
       x1="132.22896"
       gradientTransform="translate(404.56365,-8.7923964)"
       gradientUnits="userSpaceOnUse"
       id="linearGradient4284"
       xlink:href="#linearGradient3834"
       inkscape:collect="always" />
    <linearGradient
       y2="665.57477"
       x2="127.27922"
       y1="880.53528"
       x1="132.22896"
       gradientTransform="translate(404.56365,-8.7923964)"
       gradientUnits="userSpaceOnUse"
       id="linearGradient3877"
       xlink:href="#linearGradient3834"
       inkscape:collect="always" />
    <mask
       id="mask3802"
       maskUnits="userSpaceOnUse">
      <rect
         transform="matrix(0,-1,1,0,0,0)"
         ry="9"
         rx="9"
         y="280.36221"
         x="-1156"
         height="1012"
         width="1156"
         id="rect3804"
         style="fill:#ffffff;fill-opacity:1;stroke:#000000;stroke-width:0.5669291;stroke-miterlimit:4;stroke-opacity:1;stroke-dasharray:none" />
    </mask>
    <linearGradient
       id="linearGradient3834">
      <stop
         id="stop3836"
         offset="0"
         style="stop-color:#212121;stop-opacity:1;" />
      <stop
         id="stop3838"
         offset="1"
         style="stop-color:#4d4d4d;stop-opacity:1;" />
    </linearGradient>
    <linearGradient
       inkscape:collect="always"
       xlink:href="#linearGradient3838"
       id="linearGradient4038"
       gradientUnits="userSpaceOnUse"
       x1="121"
       y1="854.86218"
       x2="194.5"
       y2="855.86218" />
    <linearGradient
       inkscape:collect="always"
       xlink:href="#linearGradient3856"
       id="linearGradient4040"
       gradientUnits="userSpaceOnUse"
       x1="27"
       y1="878.86218"
       x2="199.5"
       y2="876.86218" />
    <linearGradient
       inkscape:collect="always"
       xlink:href="#linearGradient3846"
       id="linearGradient4042"
       gradientUnits="userSpaceOnUse"
       x1="42.5"
       y1="926.36218"
       x2="156.5"
       y2="941.86218" />
    <linearGradient
       inkscape:collect="always"
       xlink:href="#linearGradient3838"
       id="linearGradient4101"
       gradientUnits="userSpaceOnUse"
       gradientTransform="translate(0,-1.738e-5)"
       x1="121"
       y1="854.86218"
       x2="194.5"
       y2="855.86218" />
    <linearGradient
       inkscape:collect="always"
       xlink:href="#linearGradient3856"
       id="linearGradient4103"
       gradientUnits="userSpaceOnUse"
       gradientTransform="translate(0,-1.738e-5)"
       x1="27"
       y1="878.86218"
       x2="199.5"
       y2="876.86218" />
    <linearGradient
       inkscape:collect="always"
       xlink:href="#linearGradient3846"
       id="linearGradient4105"
       gradientUnits="userSpaceOnUse"
       gradientTransform="translate(0,-1.738e-5)"
       x1="42.5"
       y1="926.36218"
       x2="156.5"
       y2="941.86218" />
    <linearGradient
       inkscape:collect="always"
       xlink:href="#linearGradient3838"
       id="linearGradient4175"
       gradientUnits="userSpaceOnUse"
       x1="121"
       y1="854.86218"
       x2="194.5"
       y2="855.86218" />
    <linearGradient
       inkscape:collect="always"
       xlink:href="#linearGradient3856"
       id="linearGradient4177"
       gradientUnits="userSpaceOnUse"
       x1="27"
       y1="878.86218"
       x2="199.5"
       y2="876.86218" />
    <linearGradient
       inkscape:collect="always"
       xlink:href="#linearGradient3846"
       id="linearGradient4179"
       gradientUnits="userSpaceOnUse"
       x1="42.5"
       y1="926.36218"
       x2="156.5"
       y2="941.86218" />
    <linearGradient
       inkscape:collect="always"
       xlink:href="#linearGradient3838"
       id="linearGradient4201"
       gradientUnits="userSpaceOnUse"
       x1="121"
       y1="854.86218"
       x2="194.5"
       y2="855.86218" />
    <linearGradient
       inkscape:collect="always"
       xlink:href="#linearGradient3856"
       id="linearGradient4203"
       gradientUnits="userSpaceOnUse"
       x1="27"
       y1="878.86218"
       x2="199.5"
       y2="876.86218" />
    <linearGradient
       inkscape:collect="always"
       xlink:href="#linearGradient3846"
       id="linearGradient4205"
       gradientUnits="userSpaceOnUse"
       x1="42.5"
       y1="926.36218"
       x2="156.5"
       y2="941.86218" />
    <linearGradient
       inkscape:collect="always"
       xlink:href="#linearGradient3838"
       id="linearGradient4229"
       gradientUnits="userSpaceOnUse"
       x1="121"
       y1="854.86218"
       x2="194.5"
       y2="855.86218" />
    <linearGradient
       inkscape:collect="always"
       xlink:href="#linearGradient3856"
       id="linearGradient4231"
       gradientUnits="userSpaceOnUse"
       x1="27"
       y1="878.86218"
       x2="199.5"
       y2="876.86218" />
    <linearGradient
       inkscape:collect="always"
       xlink:href="#linearGradient3846"
       id="linearGradient4233"
       gradientUnits="userSpaceOnUse"
       x1="42.5"
       y1="926.36218"
       x2="156.5"
       y2="941.86218" />
  </defs>
  <sodipodi:namedview
     id="base"
     pagecolor="#ffffff"
     bordercolor="#666666"
     borderopacity="1.0"
     inkscape:pageopacity="0.0"
     inkscape:pageshadow="2"
     inkscape:zoom="0.80485766"
     inkscape:cx="363.50002"
     inkscape:cy="250.15886"
     inkscape:document-units="px"
     inkscape:current-layer="layer1"
     showgrid="false"
     inkscape:snap-global="true"
     inkscape:window-width="958"
     inkscape:window-height="1048"
     inkscape:window-x="960"
     inkscape:window-y="0"
     inkscape:window-maximized="1">
    <inkscape:grid
       type="xygrid"
       id="grid3755"
       empspacing="5"
       visible="true"
       enabled="true"
       snapvisiblegridlinesonly="true" />
  </sodipodi:namedview>
  <metadata
     id="metadata7">
    <rdf:RDF>
      <cc:Work
         rdf:about="">
        <dc:format>image/svg+xml</dc:format>
        <dc:type
           rdf:resource="http://purl.org/dc/dcmitype/StillImage" />
        <dc:title></dc:title>
      </cc:Work>
    </rdf:RDF>
  </metadata>
  <g
     inkscape:label="Ebene 1"
     inkscape:groupmode="layer"
     id="layer1"
     transform="translate(0,-552.36217)">
    <g
       id="g4093"
       transform="matrix(2.7777778,0,0,2.7777778,0,-1606.492)">
      <path
         id="path4018"
         d="M 8.0625,778.59375 C 3.2872336,780.87921 0,785.74021 0,791.40625 l 0,151.5625 c 0,7.87263 6.3461183,14.21875 14.21875,14.21875 l 151.5625,0 c 7.87263,0 14.21875,-6.34612 14.21875,-14.21875 l 0,-134.0625 -171.9375,-30.3125 z"
         style="fill:#eeeeee;fill-opacity:1;stroke:none"
         inkscape:connector-curvature="0" />
      <path
         id="path4020"
         d="M 180,808.90625 0,840.625 0,942.96875 c 0,7.87263 6.3461183,14.21875 14.21875,14.21875 l 151.5625,0 c 7.87263,0 14.21875,-6.34612 14.21875,-14.21875 l 0,-134.0625 z"
         style="fill:url(#linearGradient4101);fill-opacity:1;stroke:none"
         inkscape:connector-curvature="0" />
      <path
         id="path4022"
         d="m 0,840.625 0,102.34375 c 0,7.87263 6.3461183,14.21875 14.21875,14.21875 l 151.5625,0 c 7.87263,0 14.21875,-6.34612 14.21875,-14.21875 l 0,-70.625 L 0,840.625 z"
         style="fill:url(#linearGradient4103);fill-opacity:1;stroke:none"
         inkscape:connector-curvature="0" />
      <path
         id="path4024"
         d="m 180,872.375 -180,31.71875 0,38.875 c 0,7.87263 6.3461183,14.21875 14.21875,14.21875 l 151.5625,0 c 7.87263,0 14.21875,-6.34612 14.21875,-14.21875 l 0,-70.59375 z"
         style="fill:url(#linearGradient4105);fill-opacity:1;stroke:none"
         inkscape:connector-curvature="0" />
    </g>
    <g
       id="g4207"
       transform="translate(0,-188)">
      <g
         transform="matrix(0.54868398,0,0,0.54868398,7.0940803e-7,856.31443)"
         id="g3769">
        <rect
           transform="matrix(0,-1,1,0,0,0)"
           ry="0"
           rx="7.6254387"
           y="0"
           x="-988.36218"
           height="175.44502"
           width="248.12936"
           id="rect3767"
           style="fill:#eeeeee;fill-opacity:1;stroke:none" />
        <rect
           style="fill:#cccccf;fill-opacity:1;stroke:none"
           id="rect3763"
           width="248.12936"
           height="178.15152"
           x="-1020.3622"
           y="1.0258884e-014"
           rx="7.6254387"
           ry="0"
           transform="matrix(0,-1,0.98480787,-0.17364752,0,0)" />
        <rect
           transform="matrix(0,-1,-0.98480787,-0.17364752,0,0)"
           ry="0"
           rx="7.6254387"
           y="-178.15152"
           x="-1021.4266"
           height="178.15152"
           width="248.12936"
           id="rect3757"
           style="fill:#eeeeee;fill-opacity:1;stroke:none" />
        <rect
           style="fill:#cccccf;fill-opacity:1;stroke:none"
           id="rect2985"
           width="248.12936"
           height="175.44502"
           x="-1052.3622"
           y="0"
           rx="7.6254387"
           ry="0"
           transform="matrix(0,-1,1,0,0,0)" />
      </g>
      <g
         transform="matrix(0.54868398,0,0,0.54868398,132.91256,856.31442)"
         id="g3824">
        <path
           style="fill:#cccccf;fill-opacity:1;stroke:none"
           d="m 0,777.18705 179.99999,31.71875 0,148.28138 -179.99999,0 0,-180.00013 z"
           id="path3826"
           inkscape:connector-curvature="0" />
        <path
           inkscape:connector-curvature="0"
           id="path3828"
           d="M 179.99999,808.91205 0,840.6308 l 0,148.28138 179.99999,0 0,-180.00013 z"
           style="fill:#eeeeee;fill-opacity:1;stroke:none" />
        <path
           style="fill:#cccccf;fill-opacity:1;stroke:none"
           d="m 0,840.63707 179.99999,31.71875 0,148.28138 -179.99999,0 0,-180.00013 z"
           id="path3830"
           inkscape:connector-curvature="0" />
        <path
           inkscape:connector-curvature="0"
           id="path3832"
           d="m 180,872.36218 -180,31.71875 0,148.28127 180,0 0,-180.00002 z"
           style="fill:#eeeeee;fill-opacity:1;stroke:none" />
      </g>
      <g
         transform="matrix(0.54868398,0,0,0.54868398,267.07471,856.31442)"
         id="g4032">
        <path
           inkscape:connector-curvature="0"
           id="path3816"
           d="m 0,777.18705 179.99999,31.71875 0,148.28138 -179.99999,0 0,-180.00013 z"
           style="fill:#eeeeee;fill-opacity:1;stroke:none" />
        <path
           style="fill:url(#linearGradient4229);fill-opacity:1;stroke:none"
           d="M 179.99999,808.91205 0,840.6308 l 0,148.28138 179.99999,0 0,-180.00013 z"
           id="path3812"
           inkscape:connector-curvature="0" />
        <path
           inkscape:connector-curvature="0"
           id="path3810"
           d="m 0,840.63707 179.99999,31.71875 0,148.28138 -179.99999,0 0,-180.00013 z"
           style="fill:url(#linearGradient4231);fill-opacity:1;stroke:none" />
        <path
           style="fill:url(#linearGradient4233);fill-opacity:1;stroke:none"
           d="m 180,872.36218 -180,31.71875 0,148.28127 180,0 0,-180.00002 z"
           id="rect3781"
           inkscape:connector-curvature="0" />
      </g>
      <g
         transform="matrix(0.54868398,0,0,0.54868398,646.41322,894.89334)"
         id="g4147">
        <path
           id="path4109"
           d="m -438.78182,803.45673 c -4.77527,2.28546 -8.0625,7.14646 -8.0625,12.8125 l 0,151.5625 c 0,7.87263 6.34612,14.21875 14.21875,14.21875 l 151.5625,0 c 7.87263,0 14.21875,-6.34612 14.21875,-14.21875 l 0,-134.0625 -171.9375,-30.3125 z"
           style="fill:#aaaaaa;fill-opacity:1;stroke:none"
           inkscape:connector-curvature="0" />
        <path
           id="path4111"
           d="m -266.84432,833.76923 -180,31.71875 0,102.34375 c 0,7.87263 6.34612,14.21875 14.21875,14.21875 l 151.5625,0 c 7.87263,0 14.21875,-6.34612 14.21875,-14.21875 l 0,-134.0625 z"
           style="fill:#666666;fill-opacity:1;stroke:none"
           inkscape:connector-curvature="0" />
        <path
           id="path4113"
           d="m -446.84432,865.48798 0,102.34375 c 0,7.87263 6.34612,14.21875 14.21875,14.21875 l 151.5625,0 c 7.87263,0 14.21875,-6.34612 14.21875,-14.21875 l 0,-70.625 -180,-31.71875 z"
           style="fill:#aaaaaa;fill-opacity:1;stroke:none"
           inkscape:connector-curvature="0" />
        <path
           id="path4115"
           d="m -266.84432,897.23798 -180,31.71875 0,38.875 c 0,7.87263 6.34612,14.21875 14.21875,14.21875 l 151.5625,0 c 7.87263,0 14.21875,-6.34612 14.21875,-14.21875 l 0,-70.59375 z"
           style="fill:#666666;fill-opacity:1;stroke:none"
           inkscape:connector-curvature="0" />
      </g>
    </g>
  </g>
</svg>
